<svg width="145" height="44" viewBox="0 0 145 44" fill="none" xmlns="http://www.w3.org/2000/svg">
<path d="M139.069 0.629173C140.791 0.629173 142.513 0.629173 144.235 0.629173C144.953 0.629173 145.199 1.03534 144.83 1.64459C141.16 7.798 137.49 13.9514 133.831 20.1048C133.687 20.3587 133.513 20.4602 133.216 20.4602C130.438 20.4602 127.66 20.4704 124.892 20.511C124.421 20.5211 124.236 20.379 124.246 19.8814C124.287 18.2568 124.277 16.6423 124.308 15.0176C124.308 14.8044 124.38 14.5708 124.493 14.388C127.373 9.92022 130.264 5.46255 133.144 0.994722C133.329 0.710406 133.534 0.619019 133.862 0.619019C135.594 0.639327 137.337 0.629173 139.069 0.629173Z" fill="black"/>
<path d="M139.069 43.4898C137.326 43.4898 135.594 43.4797 133.851 43.5C133.534 43.5 133.318 43.4187 133.134 43.1344C130.264 38.6666 127.373 34.1988 124.493 29.731C124.38 29.5583 124.298 29.3146 124.298 29.1116C124.288 27.4361 124.298 25.7708 124.288 24.0954C124.288 23.7705 124.39 23.6486 124.728 23.6486C127.568 23.6588 130.418 23.6588 133.257 23.6791C133.441 23.6791 133.687 23.8314 133.78 23.9939C137.48 30.1676 141.17 36.3515 144.861 42.5353C145.168 43.0532 144.922 43.5 144.317 43.5C142.575 43.4898 140.822 43.4898 139.069 43.4898Z" fill="black"/>
<path d="M106.297 0.629173C108.02 0.629173 109.742 0.639327 111.464 0.619019C111.792 0.619019 111.997 0.72056 112.171 0.994722C115.072 5.39147 117.973 9.78821 120.874 14.1951C120.987 14.3576 121.058 14.581 121.058 14.7739C121.089 16.49 121.089 18.2162 121.12 19.9322C121.13 20.3688 120.976 20.5211 120.536 20.511C117.819 20.4805 115.113 20.4805 112.397 20.4501C112.212 20.4501 111.966 20.2978 111.874 20.1454C108.081 13.9514 104.299 7.75738 100.516 1.5532C100.239 1.09626 100.506 0.639327 101.039 0.639327C102.792 0.619019 104.545 0.619019 106.297 0.629173C106.297 0.629173 106.297 0.619019 106.297 0.629173Z" fill="black"/>
<path d="M106.318 43.4898C104.596 43.4898 102.874 43.4898 101.152 43.4898C100.865 43.4898 100.639 43.4695 100.475 43.1649C100.311 42.8704 100.434 42.6877 100.567 42.4643C103.653 37.5395 106.749 32.6148 109.824 27.6798C110.562 26.4918 111.228 25.253 111.905 24.0345C112.058 23.7603 112.222 23.6486 112.55 23.6486C115.226 23.6588 117.912 23.6588 120.587 23.6385C120.987 23.6385 121.079 23.7806 121.079 24.1462C121.069 25.8521 121.079 27.5478 121.069 29.2537C121.069 29.4974 120.987 29.7716 120.853 29.9645C117.963 34.3714 115.052 38.758 112.161 43.1548C111.997 43.3985 111.823 43.4898 111.536 43.4898C109.793 43.4898 108.05 43.4898 106.318 43.4898Z" fill="black"/>
<path d="M17.5575 23.6994C17.086 25.1007 16.6452 26.4512 16.1839 27.8017C14.4926 32.8381 12.8012 37.8644 11.1201 42.911C10.9766 43.3477 10.7921 43.5 10.3103 43.5C7.14285 43.4797 3.9754 43.4898 0.807939 43.4898C0.110894 43.4898 -0.135122 43.175 0.0698909 42.515C2.01752 36.3616 3.9754 30.2184 5.92302 24.0649C6.00503 23.8212 6.08703 23.6486 6.41506 23.6486C10.0335 23.6588 13.6623 23.6486 17.2808 23.6486C17.3525 23.6588 17.414 23.6791 17.5575 23.6994Z" fill="black"/>
<path d="M27.2239 23.6791C27.4494 23.669 27.6134 23.6588 27.7672 23.6588C31.2114 23.6588 34.6556 23.669 38.0998 23.6588C38.5304 23.6588 38.7149 23.7908 38.8379 24.197C40.765 30.3098 42.7126 36.4124 44.65 42.5151C44.8653 43.1751 44.6295 43.4899 43.9325 43.4899C40.765 43.4899 37.5976 43.4899 34.4301 43.5C34.0816 43.5 33.9176 43.3985 33.8048 43.0634C31.6522 36.7272 29.479 30.391 27.3161 24.065C27.2751 23.9533 27.2649 23.8517 27.2239 23.6791Z" fill="black"/>
<path d="M7.13257 20.4095C7.5836 19.0691 7.99362 17.7897 8.4344 16.5204C9.76699 12.7634 11.1098 9.01651 12.4424 5.26963C12.9652 3.78713 13.98 2.71079 15.3126 1.91876C16.84 1.01505 18.4493 0.385488 20.2842 0.517492C20.6327 0.5378 20.766 0.608879 20.766 0.974428C20.7762 5.11732 20.807 9.27037 20.807 13.4133C20.807 13.8499 20.7045 14.3068 20.5712 14.7231C19.9972 16.49 19.3821 18.2568 18.7978 20.0135C18.7056 20.2775 18.6133 20.4501 18.275 20.4501C14.6873 20.4399 11.0996 20.4399 7.51184 20.4399C7.41959 20.4501 7.31708 20.4298 7.13257 20.4095Z" fill="black"/>
<path d="M37.6078 20.5009C36.6647 20.5009 35.7934 20.5009 34.9221 20.5009C32.1134 20.4907 29.3047 20.4704 26.496 20.4602C26.1885 20.4602 26.0348 20.3689 25.9322 20.0744C25.3377 18.3076 24.7124 16.5611 24.1281 14.7942C24.0051 14.4084 23.9846 13.9717 23.9846 13.5656C23.9949 9.39222 24.0256 5.21887 24.0359 1.03536C24.0359 0.679962 24.1281 0.547958 24.5177 0.527649C26.7318 0.436262 28.6077 1.2689 30.299 2.55848C31.2011 3.24896 31.8674 4.15268 32.2569 5.21887C33.5075 8.63066 34.7376 12.0323 35.9574 15.4542C36.4699 16.886 36.921 18.3482 37.4027 19.7901C37.4642 19.9728 37.5155 20.1759 37.6078 20.5009Z" fill="black"/>
<path d="M75.8633 20.3993C72.9931 20.3993 70.1434 20.3993 67.2629 20.3993C67.2629 13.789 67.2629 7.20907 67.2629 0.588562C70.1229 0.588562 72.9726 0.588562 75.8633 0.588562C75.8633 7.16845 75.8633 13.7686 75.8633 20.3993Z" fill="black"/>
<path d="M75.9043 23.7096C75.9043 30.0864 75.9043 36.4022 75.9043 42.7587C74.9613 42.8603 74.0387 42.7587 73.1264 42.5455C69.9999 41.8347 67.9293 39.6211 67.4373 36.4327C67.3143 35.6407 67.2528 34.8385 67.2528 34.0363C67.2323 30.7768 67.2528 27.5072 67.2528 24.2477C67.2528 24.0751 67.2528 23.9025 67.2528 23.6994C70.1435 23.7096 72.9931 23.7096 75.9043 23.7096Z" fill="black"/>
<path d="M79.9329 42.779C79.6766 42.779 79.4716 42.779 79.2358 42.779C79.2358 40.0577 79.2358 37.3466 79.2358 34.5948C79.4614 34.5948 79.6766 34.5948 79.9329 34.5948C79.9329 37.3161 79.9329 40.0273 79.9329 42.779Z" fill="black"/>
</svg>
